<?xml version="1.0" encoding="UTF-8"?>
<svg id="Layer_1" xmlns="http://www.w3.org/2000/svg" version="1.1" viewBox="0 0 1080 1080">
  <!-- Generator: Adobe Illustrator 30.1.0, SVG Export Plug-In . SVG Version: 2.1.1 Build 136)  -->
  <defs>
    <style>
      .st0 {
        fill: #ffcb05;
      }

      .st1 {
        fill: none;
        stroke: #ffcb05;
        stroke-linecap: round;
        stroke-linejoin: round;
        stroke-width: 22px;
      }
    </style>
  </defs>
  <path class="st1" d="M18.66,679.68c270.1-6.13,448.91-148.47,526.57-420.82"/>
  <path class="st1" d="M18.66,751.82c192.18,4.21,386.8-50.78,526.57-191.35"/>
  <path class="st0" d="M534.77,392.94c32.07,48.93,68.31,95.79,109.56,137.17,93.48,94.36,209.71,166,336.43,206.16,26.34,8.5,53.51,15.13,80.58,21.14-10.01.49-21.56.8-31.66.41-14.1-.33-28.28-1.56-42.26-3.33-195.46-25.43-389.41-172.79-452.65-361.54h0Z"/>
  <path class="st0" d="M514.75,723.63c26.12,9.36,53.44,19.07,80.08,27,58.36,17.46,118.26,29.89,178.59,37.77,71.24,9.51,144.76,12.93,216.83,15.53,17.02.65,34.03,1.14,51.07,2.22-16.48,4.7-33.23,8.3-50.08,11.45-157.64,28.36-347.22,7-476.49-93.97h0Z"/>
  <path class="st1" d="M18.66,821.14c175.62-.02,351.4-.43,526.57-1.32"/>
</svg>